<svg width="20" height="20" viewBox="0 0 20 20" fill="none" xmlns="http://www.w3.org/2000/svg">
<g opacity="0.5">
<path fill-rule="evenodd" clip-rule="evenodd" d="M8.77752 14.4402C5.51033 14.4402 2.85712 11.8447 2.85712 8.64868C2.85712 5.45263 5.51033 2.85718 8.77752 2.85718C12.0447 2.85718 14.6979 5.45263 14.6979 8.64868C14.6979 10.0429 14.1936 11.3085 13.3604 12.3166L16.9126 15.7915C17.2196 16.0918 17.2196 16.6066 16.9126 16.9069C16.7591 17.0571 16.5398 17.1429 16.3425 17.1429C16.1451 17.1429 15.9259 17.0571 15.7724 16.9069L12.1763 13.3891C11.2115 14.0541 10.0493 14.4402 8.77752 14.4402ZM8.77764 4.39029C6.38444 4.39029 4.4245 6.30757 4.4245 8.64866C4.4245 10.9898 6.38444 12.907 8.77764 12.907C11.1708 12.907 13.1308 11.0099 13.1308 8.64866C13.1308 6.28739 11.1708 4.39029 8.77764 4.39029Z" fill="white"/>
</g>
</svg>
