<svg width="181" height="35" viewBox="0 0 181 35" fill="none" xmlns="http://www.w3.org/2000/svg">
<g clip-path="url(#clip0_1_188)">
<path fillRule="evenodd" clipRule="evenodd" d="M24.2448 2.52121C24.3249 1.79587 24.6208 1.75683 24.8818 2.43696L24.8797 2.43901C26.1496 5.73487 26.9756 11.1471 26.9756 17.2662V17.2724C26.9756 23.3895 26.1475 28.8038 24.8797 32.0996C24.6188 32.7777 24.3229 32.7387 24.2427 32.0154C24.0845 30.5976 23.9489 29.0956 23.838 27.5216C23.7969 26.9504 23.6756 26.9422 23.5708 27.5052C23.0469 30.3079 22.3154 32.5476 21.4565 33.9263C21.1688 34.3907 20.8544 34.3352 20.7558 33.7969C20.575 32.8188 20.4106 31.7688 20.2626 30.6572C20.2174 30.3161 20.1003 30.3079 20.0017 30.6387C19.7613 31.4483 19.4921 32.1962 19.2065 32.8455C18.7997 33.7743 17.6428 34.5366 16.6298 34.5366C7.09362 34.5366 -0.638489 26.8045 -0.638489 17.2683C-0.638489 7.73211 7.09362 0 16.6298 0C17.6449 0 18.7997 0.76232 19.2086 1.69108C19.4942 2.34039 19.7633 3.08832 20.0037 3.8979C20.1003 4.22872 20.2195 4.2205 20.2647 3.87941C20.4126 2.76778 20.577 1.71779 20.7579 0.739718C20.8565 0.201368 21.1688 0.145889 21.4585 0.610267C22.3174 1.99107 23.0489 4.23078 23.5729 7.03143C23.6777 7.59444 23.7989 7.58622 23.84 7.01499C23.951 5.44309 24.0866 3.939 24.2448 2.52121ZM16.6319 26.5271C17.6325 26.5251 18.4997 25.8408 18.7462 24.8689V24.873C19.3298 22.5717 19.6585 19.997 19.6585 17.2724C19.6585 14.5478 19.3298 11.9711 18.7462 9.67181C18.5017 8.6999 17.6346 8.01361 16.6319 8.01361C11.5196 8.01361 7.37512 12.1581 7.37512 17.2704C7.37512 22.3826 11.5196 26.5271 16.6319 26.5271ZM20.7085 25.471C20.7558 26.6422 21.0661 26.6833 21.3907 25.5573V25.5614C22.1037 23.0977 22.5085 20.2785 22.5085 17.2806V17.2642C22.5085 14.2663 22.1037 11.4471 21.3907 8.98346C21.064 7.85745 20.7558 7.89854 20.7085 9.06976C20.6739 9.94889 20.6219 10.8331 20.5687 11.7392C20.4673 13.4654 20.3613 15.2707 20.3613 17.2704C20.3613 19.2701 20.4673 21.0754 20.5687 22.8016C20.6219 23.7076 20.6739 24.5918 20.7085 25.471ZM23.8975 21.9367C24.0249 22.9806 24.3023 22.9888 24.5222 21.9614C24.8386 20.4881 25.0133 18.9121 25.0174 17.2704C25.0133 15.6286 24.8386 14.0526 24.5222 12.5793C24.3023 11.5519 24.0229 11.5601 23.8975 12.604C23.7064 14.1861 23.7064 15.608 23.7064 17.2704C23.7064 18.9327 23.7064 20.3546 23.8975 21.9367Z" fill="url(#paint0_linear_1_188)"/>
<path fillRule="evenodd" clipRule="evenodd" d="M24.2448 2.52121C24.3249 1.79587 24.6208 1.75683 24.8818 2.43696L24.8797 2.43901C26.1496 5.73487 26.9756 11.1471 26.9756 17.2662V17.2724C26.9756 23.3895 26.1475 28.8038 24.8797 32.0996C24.6188 32.7777 24.3229 32.7387 24.2427 32.0154C24.0845 30.5976 23.9489 29.0956 23.838 27.5216C23.7969 26.9504 23.6756 26.9422 23.5708 27.5052C23.0469 30.3079 22.3154 32.5476 21.4565 33.9263C21.1688 34.3907 20.8544 34.3352 20.7558 33.7969C20.575 32.8188 20.4106 31.7688 20.2626 30.6572C20.2174 30.3161 20.1003 30.3079 20.0017 30.6387C19.7613 31.4483 19.4921 32.1962 19.2065 32.8455C18.7997 33.7743 17.6428 34.5366 16.6298 34.5366C7.09362 34.5366 -0.638489 26.8045 -0.638489 17.2683C-0.638489 7.73211 7.09362 0 16.6298 0C17.6449 0 18.7997 0.76232 19.2086 1.69108C19.4942 2.34039 19.7633 3.08832 20.0037 3.8979C20.1003 4.22872 20.2195 4.2205 20.2647 3.87941C20.4126 2.76778 20.577 1.71779 20.7579 0.739718C20.8565 0.201368 21.1688 0.145889 21.4585 0.610267C22.3174 1.99107 23.0489 4.23078 23.5729 7.03143C23.6777 7.59444 23.7989 7.58622 23.84 7.01499C23.951 5.44309 24.0866 3.939 24.2448 2.52121ZM16.6319 26.5271C17.6325 26.5251 18.4997 25.8408 18.7462 24.8689V24.873C19.3298 22.5717 19.6585 19.997 19.6585 17.2724C19.6585 14.5478 19.3298 11.9711 18.7462 9.67181C18.5017 8.6999 17.6346 8.01361 16.6319 8.01361C11.5196 8.01361 7.37512 12.1581 7.37512 17.2704C7.37512 22.3826 11.5196 26.5271 16.6319 26.5271ZM20.7085 25.471C20.7558 26.6422 21.0661 26.6833 21.3907 25.5573V25.5614C22.1037 23.0977 22.5085 20.2785 22.5085 17.2806V17.2642C22.5085 14.2663 22.1037 11.4471 21.3907 8.98346C21.064 7.85745 20.7558 7.89854 20.7085 9.06976C20.6739 9.94889 20.6219 10.8331 20.5687 11.7392C20.4673 13.4654 20.3613 15.2707 20.3613 17.2704C20.3613 19.2701 20.4673 21.0754 20.5687 22.8016C20.6219 23.7076 20.6739 24.5918 20.7085 25.471ZM23.8975 21.9367C24.0249 22.9806 24.3023 22.9888 24.5222 21.9614C24.8386 20.4881 25.0133 18.9121 25.0174 17.2704C25.0133 15.6286 24.8386 14.0526 24.5222 12.5793C24.3023 11.5519 24.0229 11.5601 23.8975 12.604C23.7064 14.1861 23.7064 15.608 23.7064 17.2704C23.7064 18.9327 23.7064 20.3546 23.8975 21.9367Z" fill="url(#paint1_radial_1_188)"/>
<path fillRule="evenodd" clipRule="evenodd" d="M24.2448 2.52121C24.3249 1.79587 24.6208 1.75683 24.8818 2.43696L24.8797 2.43901C26.1496 5.73487 26.9756 11.1471 26.9756 17.2662V17.2724C26.9756 23.3895 26.1475 28.8038 24.8797 32.0996C24.6188 32.7777 24.3229 32.7387 24.2427 32.0154C24.0845 30.5976 23.9489 29.0956 23.838 27.5216C23.7969 26.9504 23.6756 26.9422 23.5708 27.5052C23.0469 30.3079 22.3154 32.5476 21.4565 33.9263C21.1688 34.3907 20.8544 34.3352 20.7558 33.7969C20.575 32.8188 20.4106 31.7688 20.2626 30.6572C20.2174 30.3161 20.1003 30.3079 20.0017 30.6387C19.7613 31.4483 19.4921 32.1962 19.2065 32.8455C18.7997 33.7743 17.6428 34.5366 16.6298 34.5366C7.09362 34.5366 -0.638489 26.8045 -0.638489 17.2683C-0.638489 7.73211 7.09362 0 16.6298 0C17.6449 0 18.7997 0.76232 19.2086 1.69108C19.4942 2.34039 19.7633 3.08832 20.0037 3.8979C20.1003 4.22872 20.2195 4.2205 20.2647 3.87941C20.4126 2.76778 20.577 1.71779 20.7579 0.739718C20.8565 0.201368 21.1688 0.145889 21.4585 0.610267C22.3174 1.99107 23.0489 4.23078 23.5729 7.03143C23.6777 7.59444 23.7989 7.58622 23.84 7.01499C23.951 5.44309 24.0866 3.939 24.2448 2.52121ZM16.6319 26.5271C17.6325 26.5251 18.4997 25.8408 18.7462 24.8689V24.873C19.3298 22.5717 19.6585 19.997 19.6585 17.2724C19.6585 14.5478 19.3298 11.9711 18.7462 9.67181C18.5017 8.6999 17.6346 8.01361 16.6319 8.01361C11.5196 8.01361 7.37512 12.1581 7.37512 17.2704C7.37512 22.3826 11.5196 26.5271 16.6319 26.5271ZM20.7085 25.471C20.7558 26.6422 21.0661 26.6833 21.3907 25.5573V25.5614C22.1037 23.0977 22.5085 20.2785 22.5085 17.2806V17.2642C22.5085 14.2663 22.1037 11.4471 21.3907 8.98346C21.064 7.85745 20.7558 7.89854 20.7085 9.06976C20.6739 9.94889 20.6219 10.8331 20.5687 11.7392C20.4673 13.4654 20.3613 15.2707 20.3613 17.2704C20.3613 19.2701 20.4673 21.0754 20.5687 22.8016C20.6219 23.7076 20.6739 24.5918 20.7085 25.471ZM23.8975 21.9367C24.0249 22.9806 24.3023 22.9888 24.5222 21.9614C24.8386 20.4881 25.0133 18.9121 25.0174 17.2704C25.0133 15.6286 24.8386 14.0526 24.5222 12.5793C24.3023 11.5519 24.0229 11.5601 23.8975 12.604C23.7064 14.1861 23.7064 15.608 23.7064 17.2704C23.7064 18.9327 23.7064 20.3546 23.8975 21.9367Z" fill="url(#paint2_radial_1_188)"/>
<path fillRule="evenodd" clipRule="evenodd" d="M24.2448 2.52121C24.3249 1.79587 24.6208 1.75683 24.8818 2.43696L24.8797 2.43901C26.1496 5.73487 26.9756 11.1471 26.9756 17.2662V17.2724C26.9756 23.3895 26.1475 28.8038 24.8797 32.0996C24.6188 32.7777 24.3229 32.7387 24.2427 32.0154C24.0845 30.5976 23.9489 29.0956 23.838 27.5216C23.7969 26.9504 23.6756 26.9422 23.5708 27.5052C23.0469 30.3079 22.3154 32.5476 21.4565 33.9263C21.1688 34.3907 20.8544 34.3352 20.7558 33.7969C20.575 32.8188 20.4106 31.7688 20.2626 30.6572C20.2174 30.3161 20.1003 30.3079 20.0017 30.6387C19.7613 31.4483 19.4921 32.1962 19.2065 32.8455C18.7997 33.7743 17.6428 34.5366 16.6298 34.5366C7.09362 34.5366 -0.638489 26.8045 -0.638489 17.2683C-0.638489 7.73211 7.09362 0 16.6298 0C17.6449 0 18.7997 0.76232 19.2086 1.69108C19.4942 2.34039 19.7633 3.08832 20.0037 3.8979C20.1003 4.22872 20.2195 4.2205 20.2647 3.87941C20.4126 2.76778 20.577 1.71779 20.7579 0.739718C20.8565 0.201368 21.1688 0.145889 21.4585 0.610267C22.3174 1.99107 23.0489 4.23078 23.5729 7.03143C23.6777 7.59444 23.7989 7.58622 23.84 7.01499C23.951 5.44309 24.0866 3.939 24.2448 2.52121ZM16.6319 26.5271C17.6325 26.5251 18.4997 25.8408 18.7462 24.8689V24.873C19.3298 22.5717 19.6585 19.997 19.6585 17.2724C19.6585 14.5478 19.3298 11.9711 18.7462 9.67181C18.5017 8.6999 17.6346 8.01361 16.6319 8.01361C11.5196 8.01361 7.37512 12.1581 7.37512 17.2704C7.37512 22.3826 11.5196 26.5271 16.6319 26.5271ZM20.7085 25.471C20.7558 26.6422 21.0661 26.6833 21.3907 25.5573V25.5614C22.1037 23.0977 22.5085 20.2785 22.5085 17.2806V17.2642C22.5085 14.2663 22.1037 11.4471 21.3907 8.98346C21.064 7.85745 20.7558 7.89854 20.7085 9.06976C20.6739 9.94889 20.6219 10.8331 20.5687 11.7392C20.4673 13.4654 20.3613 15.2707 20.3613 17.2704C20.3613 19.2701 20.4673 21.0754 20.5687 22.8016C20.6219 23.7076 20.6739 24.5918 20.7085 25.471ZM23.8975 21.9367C24.0249 22.9806 24.3023 22.9888 24.5222 21.9614C24.8386 20.4881 25.0133 18.9121 25.0174 17.2704C25.0133 15.6286 24.8386 14.0526 24.5222 12.5793C24.3023 11.5519 24.0229 11.5601 23.8975 12.604C23.7064 14.1861 23.7064 15.608 23.7064 17.2704C23.7064 18.9327 23.7064 20.3546 23.8975 21.9367Z" fill="url(#paint3_radial_1_188)"/>
<path d="M27.3211 17.2683C27.3211 21.4683 27.4876 25.4504 27.7855 29.0216C27.878 30.125 28.1718 30.1476 28.4225 29.0689C29.1642 25.8922 29.6122 21.7724 29.6122 17.2683C29.6122 12.7643 29.1642 8.64445 28.4225 5.46777C28.1697 4.38901 27.8759 4.41162 27.7855 5.51503C27.4876 9.08622 27.3211 13.0684 27.3211 17.2683Z" fill="url(#paint4_linear_1_188)"/>
<path d="M27.3211 17.2683C27.3211 21.4683 27.4876 25.4504 27.7855 29.0216C27.878 30.125 28.1718 30.1476 28.4225 29.0689C29.1642 25.8922 29.6122 21.7724 29.6122 17.2683C29.6122 12.7643 29.1642 8.64445 28.4225 5.46777C28.1697 4.38901 27.8759 4.41162 27.7855 5.51503C27.4876 9.08622 27.3211 13.0684 27.3211 17.2683Z" fill="url(#paint5_radial_1_188)"/>
<path d="M27.3211 17.2683C27.3211 21.4683 27.4876 25.4504 27.7855 29.0216C27.878 30.125 28.1718 30.1476 28.4225 29.0689C29.1642 25.8922 29.6122 21.7724 29.6122 17.2683C29.6122 12.7643 29.1642 8.64445 28.4225 5.46777C28.1697 4.38901 27.8759 4.41162 27.7855 5.51503C27.4876 9.08622 27.3211 13.0684 27.3211 17.2683Z" fill="url(#paint6_radial_1_188)"/>
<path d="M27.3211 17.2683C27.3211 21.4683 27.4876 25.4504 27.7855 29.0216C27.878 30.125 28.1718 30.1476 28.4225 29.0689C29.1642 25.8922 29.6122 21.7724 29.6122 17.2683C29.6122 12.7643 29.1642 8.64445 28.4225 5.46777C28.1697 4.38901 27.8759 4.41162 27.7855 5.51503C27.4876 9.08622 27.3211 13.0684 27.3211 17.2683Z" fill="url(#paint7_radial_1_188)"/>
<path d="M32.0036 11.5108C31.7098 8.63408 31.3728 8.64641 31.2639 11.5375C31.194 13.3868 31.1591 15.3039 31.1591 17.2682C31.1591 19.2326 31.1961 21.1497 31.2639 22.999C31.3728 25.888 31.7098 25.9024 32.0036 23.0257C32.1865 21.2257 32.2872 19.2881 32.2872 17.2682C32.2872 15.2484 32.1865 13.3107 32.0036 11.5108Z" fill="url(#paint8_linear_1_188)"/>
<path d="M32.0036 11.5108C31.7098 8.63408 31.3728 8.64641 31.2639 11.5375C31.194 13.3868 31.1591 15.3039 31.1591 17.2682C31.1591 19.2326 31.1961 21.1497 31.2639 22.999C31.3728 25.888 31.7098 25.9024 32.0036 23.0257C32.1865 21.2257 32.2872 19.2881 32.2872 17.2682C32.2872 15.2484 32.1865 13.3107 32.0036 11.5108Z" fill="url(#paint9_radial_1_188)"/>
<path d="M32.0036 11.5108C31.7098 8.63408 31.3728 8.64641 31.2639 11.5375C31.194 13.3868 31.1591 15.3039 31.1591 17.2682C31.1591 19.2326 31.1961 21.1497 31.2639 22.999C31.3728 25.888 31.7098 25.9024 32.0036 23.0257C32.1865 21.2257 32.2872 19.2881 32.2872 17.2682C32.2872 15.2484 32.1865 13.3107 32.0036 11.5108Z" fill="url(#paint10_radial_1_188)"/>
<path d="M32.0036 11.5108C31.7098 8.63408 31.3728 8.64641 31.2639 11.5375C31.194 13.3868 31.1591 15.3039 31.1591 17.2682C31.1591 19.2326 31.1961 21.1497 31.2639 22.999C31.3728 25.888 31.7098 25.9024 32.0036 23.0257C32.1865 21.2257 32.2872 19.2881 32.2872 17.2682C32.2872 15.2484 32.1865 13.3107 32.0036 11.5108Z" fill="url(#paint11_radial_1_188)"/>
<path d="M50.0729 9.10738C52.5252 9.10738 54.0885 10.3335 54.7629 12.7858L58.3494 10.7014C57.1539 7.29881 54.1192 5.42892 50.3181 5.42892C45.6894 5.42892 42.5627 8.0958 42.5627 11.3758C42.5627 15.0849 45.107 17.3226 50.1648 18.0889C53.8433 18.6714 55.0694 19.5603 55.0694 21.1543C55.0694 22.7177 53.3835 23.7292 50.8086 23.7292C47.6512 23.7292 45.4135 21.982 44.5552 18.6714L40.8767 20.9704C41.7044 23.3307 43.0225 25.0167 44.8311 26.0283C46.6396 27.0092 48.6015 27.4997 50.7166 27.4997C55.9277 27.4997 59.269 24.7408 59.269 21.001C59.269 17.3226 56.9393 15.5753 51.6975 14.5944C48.6321 14.012 46.701 13.123 46.701 11.4064C46.701 10.0883 48.0191 9.10738 50.0729 9.10738ZM60.2605 12.6632V33.2626H64.1841V25.3232C64.9505 26.672 66.6365 27.4997 68.6289 27.4997C72.7059 27.4997 75.6793 24.5569 75.6793 19.9895C75.6793 15.4221 72.7672 12.3567 68.8435 12.3567C66.9123 12.3567 65.1038 13.3376 64.0309 14.8396V12.6632H60.2605ZM67.8933 24.1584C65.7781 24.1584 64.0309 22.5644 64.0309 19.9895C64.0309 17.3839 65.7781 15.7286 67.8933 15.7286C70.0697 15.7286 71.7556 17.3839 71.7556 19.9895C71.7556 22.5337 70.0697 24.1584 67.8933 24.1584ZM76.1286 22.9935C76.1286 25.783 78.397 27.4997 80.9106 27.4997C83.2709 27.4997 84.773 26.6413 85.7232 24.9554V27.1931H89.3097V18.2422C89.3097 14.4411 87.0413 12.3567 82.6272 12.3567C79.102 12.3567 76.803 14.1039 76.0366 16.9241L79.4392 17.8437C79.7764 16.3723 80.8493 15.4221 82.5965 15.4221C84.4051 15.4221 85.57 16.403 85.57 18.0276V18.9472L84.2825 18.6407C83.4855 18.4261 82.6578 18.3342 81.7995 18.3342C78.3663 18.3342 76.1286 19.8975 76.1286 22.9935ZM85.57 21.8287C85.57 23.5147 84.2825 24.4956 82.4739 24.4956C80.9106 24.4956 80.1136 23.8212 80.1136 22.7483C80.1136 21.6141 80.9719 21.001 82.4126 21.001C82.995 21.001 83.7614 21.1543 84.681 21.4302L85.57 21.7061V21.8287ZM91.2172 12.6632V27.1931H95.1409V17.8437C95.1409 16.3723 95.9379 15.5447 97.164 15.5447C98.2676 15.5447 99.0033 16.2804 99.0033 17.3532C99.0033 17.7517 98.9726 18.1196 98.8806 18.4568H102.59C102.743 17.8744 102.804 17.2919 102.804 16.6482C102.804 14.1653 101.241 12.3567 98.6354 12.3567C96.9495 12.3567 95.754 13.1843 95.1409 14.5331V12.6632H91.2172ZM111.807 18.6101L117.448 12.6632H112.635L107.73 18.0583V5.73546H103.807V27.1931H107.73V22.9322L109.233 21.3689L113.248 27.1931H117.754L111.807 18.6101Z" fill="white"/>
<path d="M119.876 12.6632H117.27L121.592 27.1931H124.903L128.122 16.0351L131.34 27.1931H134.62L138.943 12.6632H136.337L132.934 24.6182L129.654 12.6632H126.558L123.278 24.6182L119.876 12.6632ZM138.92 23.0549C138.92 24.4036 139.38 25.4765 140.3 26.3042C141.25 27.1012 142.384 27.4997 143.733 27.4997C146.063 27.4997 147.994 26.4574 148.73 24.8941V27.1931H151.274V18.0889C151.274 14.5024 149.036 12.3567 145.082 12.3567C141.679 12.3567 139.411 14.1346 138.829 16.9241L141.22 17.5985C141.587 15.7286 142.997 14.5944 145.082 14.5944C147.258 14.5944 148.73 15.7593 148.73 17.8744V19.3764L147.412 19.0086C146.431 18.702 145.388 18.5487 144.316 18.5487C141.158 18.5487 138.92 20.0814 138.92 23.0549ZM148.73 21.7674C148.73 23.8825 147.044 25.17 144.622 25.17C142.691 25.17 141.649 24.2504 141.649 22.9016C141.649 21.3995 142.814 20.6026 144.683 20.6026C145.45 20.6026 146.369 20.7558 147.381 21.0624L148.73 21.4609V21.7674ZM153.892 12.6632H151.102L156.896 27.1931H160.114L165.939 12.6632H163.119L158.52 24.6182L153.892 12.6632ZM176.938 21.9207C176.355 24.0051 174.976 25.17 172.738 25.17C170.163 25.17 168.14 23.484 168.109 20.3267H178.624C178.746 19.7749 178.808 19.1925 178.808 18.5487C178.808 16.6482 178.225 15.1462 177.03 14.0426C175.834 12.9084 174.271 12.3567 172.34 12.3567C168.201 12.3567 165.412 15.6673 165.412 19.8362C165.412 24.5262 168.477 27.4997 172.738 27.4997C176.079 27.4997 178.256 25.7524 179.237 22.8096L176.938 21.9207ZM168.109 18.4261C168.385 16.1271 170.071 14.6864 172.309 14.6864C174.516 14.6864 176.202 15.9125 176.202 17.997L176.171 18.4261H168.109Z" fill="url(#paint12_linear_1_188)"/>
<path d="M119.876 12.6632H117.27L121.592 27.1931H124.903L128.122 16.0351L131.34 27.1931H134.62L138.943 12.6632H136.337L132.934 24.6182L129.654 12.6632H126.558L123.278 24.6182L119.876 12.6632ZM138.92 23.0549C138.92 24.4036 139.38 25.4765 140.3 26.3042C141.25 27.1012 142.384 27.4997 143.733 27.4997C146.063 27.4997 147.994 26.4574 148.73 24.8941V27.1931H151.274V18.0889C151.274 14.5024 149.036 12.3567 145.082 12.3567C141.679 12.3567 139.411 14.1346 138.829 16.9241L141.22 17.5985C141.587 15.7286 142.997 14.5944 145.082 14.5944C147.258 14.5944 148.73 15.7593 148.73 17.8744V19.3764L147.412 19.0086C146.431 18.702 145.388 18.5487 144.316 18.5487C141.158 18.5487 138.92 20.0814 138.92 23.0549ZM148.73 21.7674C148.73 23.8825 147.044 25.17 144.622 25.17C142.691 25.17 141.649 24.2504 141.649 22.9016C141.649 21.3995 142.814 20.6026 144.683 20.6026C145.45 20.6026 146.369 20.7558 147.381 21.0624L148.73 21.4609V21.7674ZM153.892 12.6632H151.102L156.896 27.1931H160.114L165.939 12.6632H163.119L158.52 24.6182L153.892 12.6632ZM176.938 21.9207C176.355 24.0051 174.976 25.17 172.738 25.17C170.163 25.17 168.14 23.484 168.109 20.3267H178.624C178.746 19.7749 178.808 19.1925 178.808 18.5487C178.808 16.6482 178.225 15.1462 177.03 14.0426C175.834 12.9084 174.271 12.3567 172.34 12.3567C168.201 12.3567 165.412 15.6673 165.412 19.8362C165.412 24.5262 168.477 27.4997 172.738 27.4997C176.079 27.4997 178.256 25.7524 179.237 22.8096L176.938 21.9207ZM168.109 18.4261C168.385 16.1271 170.071 14.6864 172.309 14.6864C174.516 14.6864 176.202 15.9125 176.202 17.997L176.171 18.4261H168.109Z" fill="url(#paint13_radial_1_188)"/>
<path d="M119.876 12.6632H117.27L121.592 27.1931H124.903L128.122 16.0351L131.34 27.1931H134.62L138.943 12.6632H136.337L132.934 24.6182L129.654 12.6632H126.558L123.278 24.6182L119.876 12.6632ZM138.92 23.0549C138.92 24.4036 139.38 25.4765 140.3 26.3042C141.25 27.1012 142.384 27.4997 143.733 27.4997C146.063 27.4997 147.994 26.4574 148.73 24.8941V27.1931H151.274V18.0889C151.274 14.5024 149.036 12.3567 145.082 12.3567C141.679 12.3567 139.411 14.1346 138.829 16.9241L141.22 17.5985C141.587 15.7286 142.997 14.5944 145.082 14.5944C147.258 14.5944 148.73 15.7593 148.73 17.8744V19.3764L147.412 19.0086C146.431 18.702 145.388 18.5487 144.316 18.5487C141.158 18.5487 138.92 20.0814 138.92 23.0549ZM148.73 21.7674C148.73 23.8825 147.044 25.17 144.622 25.17C142.691 25.17 141.649 24.2504 141.649 22.9016C141.649 21.3995 142.814 20.6026 144.683 20.6026C145.45 20.6026 146.369 20.7558 147.381 21.0624L148.73 21.4609V21.7674ZM153.892 12.6632H151.102L156.896 27.1931H160.114L165.939 12.6632H163.119L158.52 24.6182L153.892 12.6632ZM176.938 21.9207C176.355 24.0051 174.976 25.17 172.738 25.17C170.163 25.17 168.14 23.484 168.109 20.3267H178.624C178.746 19.7749 178.808 19.1925 178.808 18.5487C178.808 16.6482 178.225 15.1462 177.03 14.0426C175.834 12.9084 174.271 12.3567 172.34 12.3567C168.201 12.3567 165.412 15.6673 165.412 19.8362C165.412 24.5262 168.477 27.4997 172.738 27.4997C176.079 27.4997 178.256 25.7524 179.237 22.8096L176.938 21.9207ZM168.109 18.4261C168.385 16.1271 170.071 14.6864 172.309 14.6864C174.516 14.6864 176.202 15.9125 176.202 17.997L176.171 18.4261H168.109Z" fill="url(#paint14_radial_1_188)"/>
<path d="M119.876 12.6632H117.27L121.592 27.1931H124.903L128.122 16.0351L131.34 27.1931H134.62L138.943 12.6632H136.337L132.934 24.6182L129.654 12.6632H126.558L123.278 24.6182L119.876 12.6632ZM138.92 23.0549C138.92 24.4036 139.38 25.4765 140.3 26.3042C141.25 27.1012 142.384 27.4997 143.733 27.4997C146.063 27.4997 147.994 26.4574 148.73 24.8941V27.1931H151.274V18.0889C151.274 14.5024 149.036 12.3567 145.082 12.3567C141.679 12.3567 139.411 14.1346 138.829 16.9241L141.22 17.5985C141.587 15.7286 142.997 14.5944 145.082 14.5944C147.258 14.5944 148.73 15.7593 148.73 17.8744V19.3764L147.412 19.0086C146.431 18.702 145.388 18.5487 144.316 18.5487C141.158 18.5487 138.92 20.0814 138.92 23.0549ZM148.73 21.7674C148.73 23.8825 147.044 25.17 144.622 25.17C142.691 25.17 141.649 24.2504 141.649 22.9016C141.649 21.3995 142.814 20.6026 144.683 20.6026C145.45 20.6026 146.369 20.7558 147.381 21.0624L148.73 21.4609V21.7674ZM153.892 12.6632H151.102L156.896 27.1931H160.114L165.939 12.6632H163.119L158.52 24.6182L153.892 12.6632ZM176.938 21.9207C176.355 24.0051 174.976 25.17 172.738 25.17C170.163 25.17 168.14 23.484 168.109 20.3267H178.624C178.746 19.7749 178.808 19.1925 178.808 18.5487C178.808 16.6482 178.225 15.1462 177.03 14.0426C175.834 12.9084 174.271 12.3567 172.34 12.3567C168.201 12.3567 165.412 15.6673 165.412 19.8362C165.412 24.5262 168.477 27.4997 172.738 27.4997C176.079 27.4997 178.256 25.7524 179.237 22.8096L176.938 21.9207ZM168.109 18.4261C168.385 16.1271 170.071 14.6864 172.309 14.6864C174.516 14.6864 176.202 15.9125 176.202 17.997L176.171 18.4261H168.109Z" fill="url(#paint15_radial_1_188)"/>
</g>
<defs>
<linearGradient id="paint0_linear_1_188" x1="32.3851" y1="17.145" x2="-0.544152" y2="17.145" gradientUnits="userSpaceOnUse">
<stop stop-color="#8F00FF"/>
<stop offset="1" stop-color="#376FFF"/>
</linearGradient>
<radialGradient id="paint1_radial_1_188" cx="0" cy="0" r="1" gradientUnits="userSpaceOnUse" gradientTransform="translate(14.8319 -3.40178) rotate(71.3362) scale(32.3154 32.3154)">
<stop stop-color="#6100FF"/>
<stop offset="1" stop-color="#02FBE4" stop-opacity="0"/>
</radialGradient>
<radialGradient id="paint2_radial_1_188" cx="0" cy="0" r="1" gradientUnits="userSpaceOnUse" gradientTransform="translate(20.683 17.145) rotate(-180) scale(21.2271 20.237)">
<stop stop-color="#02FBE4" stop-opacity="0"/>
<stop offset="1" stop-color="#0047FF"/>
</radialGradient>
<radialGradient id="paint3_radial_1_188" cx="0" cy="0" r="1" gradientUnits="userSpaceOnUse" gradientTransform="translate(15.8243 17.2683) rotate(90) scale(17.2683 16.4628)">
<stop stop-color="#44FFF4"/>
<stop offset="1" stop-color="#00FFFF" stop-opacity="0"/>
</radialGradient>
<linearGradient id="paint4_linear_1_188" x1="32.3851" y1="17.145" x2="-0.544152" y2="17.145" gradientUnits="userSpaceOnUse">
<stop stop-color="#8F00FF"/>
<stop offset="1" stop-color="#376FFF"/>
</linearGradient>
<radialGradient id="paint5_radial_1_188" cx="0" cy="0" r="1" gradientUnits="userSpaceOnUse" gradientTransform="translate(14.8319 -3.40178) rotate(71.3362) scale(32.3154 32.3154)">
<stop stop-color="#6100FF"/>
<stop offset="1" stop-color="#02FBE4" stop-opacity="0"/>
</radialGradient>
<radialGradient id="paint6_radial_1_188" cx="0" cy="0" r="1" gradientUnits="userSpaceOnUse" gradientTransform="translate(20.683 17.145) rotate(-180) scale(21.2271 20.237)">
<stop stop-color="#02FBE4" stop-opacity="0"/>
<stop offset="1" stop-color="#0047FF"/>
</radialGradient>
<radialGradient id="paint7_radial_1_188" cx="0" cy="0" r="1" gradientUnits="userSpaceOnUse" gradientTransform="translate(15.8243 17.2683) rotate(90) scale(17.2683 16.4628)">
<stop stop-color="#44FFF4"/>
<stop offset="1" stop-color="#00FFFF" stop-opacity="0"/>
</radialGradient>
<linearGradient id="paint8_linear_1_188" x1="32.3851" y1="17.145" x2="-0.544152" y2="17.145" gradientUnits="userSpaceOnUse">
<stop stop-color="#8F00FF"/>
<stop offset="1" stop-color="#376FFF"/>
</linearGradient>
<radialGradient id="paint9_radial_1_188" cx="0" cy="0" r="1" gradientUnits="userSpaceOnUse" gradientTransform="translate(14.8319 -3.40178) rotate(71.3362) scale(32.3154 32.3154)">
<stop stop-color="#6100FF"/>
<stop offset="1" stop-color="#02FBE4" stop-opacity="0"/>
</radialGradient>
<radialGradient id="paint10_radial_1_188" cx="0" cy="0" r="1" gradientUnits="userSpaceOnUse" gradientTransform="translate(20.683 17.145) rotate(-180) scale(21.2271 20.237)">
<stop stop-color="#02FBE4" stop-opacity="0"/>
<stop offset="1" stop-color="#0047FF"/>
</radialGradient>
<radialGradient id="paint11_radial_1_188" cx="0" cy="0" r="1" gradientUnits="userSpaceOnUse" gradientTransform="translate(15.8243 17.2683) rotate(90) scale(17.2683 16.4628)">
<stop stop-color="#44FFF4"/>
<stop offset="1" stop-color="#00FFFF" stop-opacity="0"/>
</radialGradient>
<linearGradient id="paint12_linear_1_188" x1="179.245" y1="18.5824" x2="116.933" y2="18.5824" gradientUnits="userSpaceOnUse">
<stop stop-color="#00FFE0"/>
<stop offset="1" stop-color="#376FFF"/>
</linearGradient>
<radialGradient id="paint13_radial_1_188" cx="0" cy="0" r="1" gradientUnits="userSpaceOnUse" gradientTransform="translate(188.544 16.1601) rotate(161.139) scale(59.8278 94.343)">
<stop stop-color="#8F00FF"/>
<stop offset="1" stop-color="#02FBE4" stop-opacity="0"/>
</radialGradient>
<radialGradient id="paint14_radial_1_188" cx="0" cy="0" r="1" gradientUnits="userSpaceOnUse" gradientTransform="translate(182.39 25.076) rotate(-162.094) scale(51.3057 59.8256)">
<stop stop-color="#02FBE4" stop-opacity="0"/>
<stop offset="1" stop-color="#0047FF"/>
</radialGradient>
<radialGradient id="paint15_radial_1_188" cx="0" cy="0" r="1" gradientUnits="userSpaceOnUse" gradientTransform="translate(116.749 14.7884) rotate(24.1987) scale(41.8294 86.7953)">
<stop stop-color="#44FFF4"/>
<stop offset="1" stop-color="#00FFFF" stop-opacity="0.14"/>
</radialGradient>
<clipPath id="clip0_1_188">
<rect width="181" height="35" fill="white"/>
</clipPath>
</defs>
</svg>
