<svg width="22" height="22" viewBox="0 0 22 22" fill="none" xmlns="http://www.w3.org/2000/svg">
<g filter="url(#filter0_f_1_274)">
<path d="M15.8732 12.9566C14.9184 13.3406 13.8718 13.4354 12.8635 13.2295C11.8553 13.0235 10.9298 12.5257 10.2021 11.798C9.47441 11.0703 8.97663 10.1448 8.77065 9.13658C8.56466 8.12831 8.65953 7.08174 9.04349 6.12695C7.91282 6.58238 6.97578 7.41693 6.39301 8.48754C5.81024 9.55815 5.61803 10.7981 5.84933 11.9949C6.08064 13.1917 6.72105 14.2708 7.66078 15.0472C8.60052 15.8235 9.78104 16.2488 11 16.2501C12.0482 16.2502 13.0724 15.9365 13.9409 15.3496C14.8093 14.7626 15.4823 13.9292 15.8732 12.9566Z" stroke="#FFE500" stroke-linecap="round" stroke-linejoin="round"/>
</g>
<path d="M15.8732 12.9565C14.9184 13.3404 13.8718 13.4353 12.8635 13.2293C11.8553 13.0233 10.9298 12.5256 10.2021 11.7979C9.47442 11.0702 8.97665 10.1447 8.77066 9.13646C8.56467 8.12819 8.65955 7.08162 9.0435 6.12683C7.91283 6.58226 6.97579 7.41681 6.39302 8.48742C5.81025 9.55803 5.61805 10.798 5.84935 11.9948C6.08065 13.1916 6.72107 14.2707 7.6608 15.047C8.60053 15.8234 9.78106 16.2487 11 16.25C12.0482 16.25 13.0724 15.9364 13.9409 15.3495C14.8094 14.7625 15.4823 13.9291 15.8732 12.9565Z" stroke="#FFE500" stroke-linecap="round" stroke-linejoin="round"/>
<defs>
<filter id="filter0_f_1_274" x="0.253906" y="0.626953" width="21.1193" height="21.1232" filterUnits="userSpaceOnUse" color-interpolation-filters="sRGB">
<feFlood flood-opacity="0" result="BackgroundImageFix"/>
<feBlend mode="normal" in="SourceGraphic" in2="BackgroundImageFix" result="shape"/>
<feGaussianBlur stdDeviation="2.5" result="effect1_foregroundBlur_1_274"/>
</filter>
</defs>
</svg>
